<svg version="1.1" xmlns="http://www.w3.org/2000/svg" xmlns:xlink="http://www.w3.org/1999/xlink" width="125.10967" height="43.0267" viewBox="0,0,125.10967,43.0267"><g transform="translate(-257.44516,-158.48665)"><g stroke-miterlimit="10"><path d="M259.19516,186.8241c0,-3.51993 0,-9.8468 0,-15.44572c0,-5.98707 4.61083,-11.14173 11.97515,-11.14173c25.756,0 85.19224,0 98.8526,0c5.47901,0 10.78192,5.96315 10.78192,10.25912c0,3.35366 0,9.85935 0,15.88702c0,7.01391 -5.55004,13.38056 -11.22323,13.38056c-14.14887,0 -75.60259,0 -100.17652,0c-6.32756,0 -10.20992,-7.85791 -10.20992,-12.93926z" fill="#ffffff" stroke="#000000" stroke-width="3.5"/><text transform="translate(283.75001,188.05186) scale(0.5,0.5)" font-size="40" xml:space="preserve" fill-opacity="0.25098" fill="#000000" stroke="none" stroke-width="1" font-family="Pixel" font-weight="normal" text-anchor="start"><tspan x="0" dy="0">Copied!</tspan></text><text transform="translate(283.75001,185.76875) scale(0.5,0.5)" font-size="40" xml:space="preserve" fill="#000000" stroke="none" stroke-width="1" font-family="Pixel" font-weight="normal" text-anchor="start"><tspan x="0" dy="0">Copied!</tspan></text></g></g></svg>